<?xml version="1.0" encoding="UTF-8" standalone="no"?>
<!-- Created with Inkscape (http://www.inkscape.org/) -->

<svg
   width="117mm"
   height="97mm"
   viewBox="25 27 117 97"
   version="1.1"
   id="svg750"
   inkscape:version="1.3.2 (091e20e, 2023-11-25, custom)"
   sodipodi:docname="GEOL_azul.svg"
   inkscape:export-filename="GEOL_blanco.png"
   inkscape:export-xdpi="96"
   inkscape:export-ydpi="96"
   xml:space="preserve"
   xmlns:inkscape="http://www.inkscape.org/namespaces/inkscape"
   xmlns:sodipodi="http://sodipodi.sourceforge.net/DTD/sodipodi-0.dtd"
   xmlns="http://www.w3.org/2000/svg"
   xmlns:svg="http://www.w3.org/2000/svg"><sodipodi:namedview
     id="namedview752"
     pagecolor="#ffffff"
     bordercolor="#000000"
     borderopacity="0.25"
     inkscape:showpageshadow="2"
     inkscape:pageopacity="0.0"
     inkscape:pagecheckerboard="0"
     inkscape:deskcolor="#d1d1d1"
     inkscape:document-units="mm"
     showgrid="false"
     showguides="true"
     inkscape:zoom="0.52724989"
     inkscape:cx="966.33496"
     inkscape:cy="304.40974"
     inkscape:window-width="3440"
     inkscape:window-height="1369"
     inkscape:window-x="2552"
     inkscape:window-y="-8"
     inkscape:window-maximized="1"
     inkscape:current-layer="layer1"><sodipodi:guide
       position="-31.685295,158.13884"
       orientation="0,1177.7997"
       id="guide399"
       inkscape:locked="false" /><sodipodi:guide
       position="279.94086,163.00718"
       orientation="427.63135,0"
       id="guide401"
       inkscape:locked="false" /><sodipodi:guide
       position="279.94086,40.369801"
       orientation="0,-1177.7997"
       id="guide403"
       inkscape:locked="false" /><sodipodi:guide
       position="-31.685295,37.935635"
       orientation="-427.63135,0"
       id="guide405"
       inkscape:locked="false" /></sodipodi:namedview><defs
     id="defs747" /><g
     inkscape:label="Layer 1"
     inkscape:groupmode="layer"
     id="layer1"
     transform="translate(-36.75744,-1.9173083)"><path
       d="m 121.48316,53.000278 c -0.89196,-0.641452 -0.78128,-2.181694 0.11258,-2.695821 2.34339,-1.348175 4.51984,-2.631082 6.64003,-3.981395 1.06078,-0.576714 2.34527,-1.153442 1.56397,-2.952612 -0.72687,-1.732293 -1.89835,-1.026115 -2.95914,-0.384663 -3.57161,2.119109 -7.14321,4.173462 -10.6581,6.355156 -2.23271,1.348177 -2.23271,2.69796 -0.0563,4.302927 14.00788,9.885027 28.01577,19.771646 42.02174,29.723537 0.39065,0.32153 0.83757,0.770932 1.28447,0.770932 0.67014,0 1.56211,-0.129509 1.84207,-0.643607 0.3339,-0.511972 0.22323,-1.667553 -0.113,-2.246418 -0.39017,-0.641454 -1.17145,-1.026115 -1.84206,-1.475503 -12.33268,-8.731039 -24.72217,-17.527366 -37.10934,-26.258405 -0.2237,-0.192066 -0.44692,-0.319923 -0.72689,-0.514128 z M 69.584289,33.934823 h 95.930071 c 0.72641,0 1.34075,0.704584 1.34075,1.54024 v 64.2636 c 0,1.153427 -1.11752,1.924897 -2.00948,1.348177 C 132.70073,79.708071 100.77944,58.521386 68.803475,37.337365 67.239036,36.116516 66.848858,34.12742 69.584289,33.934823 Z"
       style="fill:#014b94;fill-opacity:1;fill-rule:nonzero;stroke:none;stroke-width:0.498797"
       id="path4164" /><path
       d="m 119.12626,101.82797 c 0.89384,0.64146 0.83756,2.11697 -0.11073,2.69584 -2.28901,1.34818 -4.46545,2.63109 -6.64143,3.97928 -1.00499,0.57885 -2.34341,1.15558 -1.56259,2.95476 0.78129,1.73231 1.89649,1.02612 2.95775,0.38467 3.57114,-2.11912 7.14275,-4.17349 10.71437,-6.35519 2.17599,-1.35033 2.17599,-2.76057 0,-4.30295 -14.00649,-9.887175 -27.958081,-19.836396 -41.965882,-29.723547 -0.446902,-0.32153 -0.893816,-0.833517 -1.338872,-0.833517 -0.613872,0.06263 -1.562106,0.192065 -1.841603,0.706191 -0.279958,0.511974 -0.167418,1.667553 0.110732,2.24642 0.390638,0.641984 1.22773,0.963514 1.842062,1.412915 12.388959,8.793627 24.722153,17.525214 37.111633,26.320998 0.22323,0.12739 0.50133,0.31993 0.72456,0.51413 z m 51.90076,19.06555 H 75.095128 c -0.724552,0 -1.338423,-0.70672 -1.338423,-1.60497 V 55.089578 c 0,-1.155579 1.115204,-1.924888 2.00902,-1.348176 32.144845,21.314028 64.120995,42.565452 96.042115,63.749558 1.56257,1.15614 1.95321,3.20997 -0.78082,3.40256 z"
       style="fill:#014b94;fill-opacity:1;fill-rule:nonzero;stroke:none;stroke-width:0.498797"
       id="path4166" /></g></svg>
